<?xml version="1.0" encoding="UTF-8" standalone="no"?><!DOCTYPE svg PUBLIC "-//W3C//DTD SVG 1.1//EN" "http://www.w3.org/Graphics/SVG/1.1/DTD/svg11.dtd"><svg width="100%" height="100%" viewBox="0 0 461 14" version="1.1" xmlns="http://www.w3.org/2000/svg" xmlns:xlink="http://www.w3.org/1999/xlink" xml:space="preserve" xmlns:serif="http://www.serif.com/" style="fill-rule:evenodd;clip-rule:evenodd;stroke-linejoin:round;stroke-miterlimit:2;"><path d="M460.095,13.091l0,-10.909l-181.417,0l-6.546,6.546l-272.132,0l0,4.364l460.095,0Z" style="fill:#002864;fill-rule:nonzero;"/><path d="M460.095,13.091l0,-13.091l-113.387,0l-6.546,6.546l-340.162,0l0,6.546l460.095,-0Z" style="fill:#14c8ff;fill-rule:nonzero;"/><path d="M405.316,6.369l0,-2.208l1.046,0l0,5.454l-1.046,0l0,-2.201l-1.869,0l0,2.201l-1.046,0l0,-5.454l1.046,0l0,2.208l1.869,0" style="fill:#fff;fill-rule:nonzero;"/><path d="M410.973,4.161l0,1.046l-2.392,0l0,1.161l2.077,0l0,1.046l-2.077,0l0,1.154l2.392,0l0,1.046l-2.923,0c-0.045,0 -0.092,-0.016 -0.123,-0.055l-0.338,-0.337c-0.038,-0.031 -0.054,-0.078 -0.054,-0.124l0,-4.423c0,-0.045 0.016,-0.092 0.054,-0.123l0.338,-0.338c0.031,-0.031 0.078,-0.054 0.123,-0.054l2.923,0" style="fill:#fff;fill-rule:nonzero;"/><path d="M412.591,9.615c-0.046,0 -0.092,-0.016 -0.123,-0.055l-0.338,-0.337c-0.039,-0.031 -0.054,-0.078 -0.054,-0.124l0,-4.938l1.046,0l0,4.408l2.277,0l0,1.046l-2.808,0" style="fill:#fff;fill-rule:nonzero;"/><path d="M421.016,4.161l0,5.454l-1.046,0l0,-3.015l-0.854,1.785c-0.031,0.06 -0.092,0.1 -0.154,0.1l-0.615,0c-0.07,0 -0.131,-0.04 -0.162,-0.1l-0.854,-1.785l0,3.015l-1.046,0l0,-5.454l1.046,0l1.323,2.769l1.315,-2.769l1.046,0" style="fill:#fff;fill-rule:nonzero;"/><path d="M425.035,6.369l0,-2.208l1.046,0l0,5.454l-1.046,0l0,-2.201l-1.869,0l0,2.201l-1.046,0l0,-5.454l1.046,0l0,2.208l1.869,0" style="fill:#fff;fill-rule:nonzero;"/><path d="M430.039,8.061l0,-2.338c0,-0.046 -0.024,-0.092 -0.055,-0.123l-0.331,-0.338c-0.039,-0.031 -0.084,-0.054 -0.131,-0.054l-0.938,0c-0.047,0 -0.084,0.023 -0.123,0.054l-0.332,0.338c-0.038,0.031 -0.054,0.078 -0.054,0.123l0,2.338c0,0.047 0.016,0.084 0.054,0.123l0.332,0.331c0.039,0.039 0.076,0.055 0.123,0.055l0.938,0c0.047,0 0.092,-0.016 0.131,-0.055l0.331,-0.331c0.031,-0.039 0.055,-0.076 0.055,-0.123Zm0.246,-3.639l0.546,0.539c0.162,0.162 0.253,0.384 0.253,0.615l0,2.623c0,0.231 -0.091,0.455 -0.253,0.616l-0.546,0.546c-0.162,0.162 -0.385,0.254 -0.616,0.254l-1.223,0c-0.23,0 -0.461,-0.085 -0.622,-0.254l-0.539,-0.546c-0.162,-0.162 -0.254,-0.385 -0.254,-0.616l0,-2.623c0,-0.231 0.092,-0.454 0.254,-0.615l0.539,-0.539c0.169,-0.169 0.392,-0.261 0.622,-0.261l1.223,0c0.231,0 0.446,0.099 0.616,0.261" style="fill:#fff;fill-rule:nonzero;"/><path d="M432.526,9.615c-0.047,0 -0.093,-0.016 -0.124,-0.055l-0.338,-0.337c-0.039,-0.031 -0.054,-0.078 -0.054,-0.124l0,-4.938l1.046,0l0,4.408l2.277,0l0,1.046l-2.807,0" style="fill:#fff;fill-rule:nonzero;"/><path d="M435.258,5.207l0,-1.046l3.939,0l0,1.046l-1.446,0l0,4.408l-1.046,0l0,-4.408l-1.446,0" style="fill:#fff;fill-rule:nonzero;"/><path d="M443.246,4.215l0.338,0.338c0.03,0.031 0.054,0.078 0.054,0.123l0,0.269l-2.293,3.624l2.262,0l0,1.046l-3.124,0c-0.046,0 -0.092,-0.016 -0.123,-0.055l-0.337,-0.337c-0.032,-0.031 -0.055,-0.078 -0.055,-0.124l0,-0.315l2.262,-3.577l-2.293,0l0,-1.046l3.185,0c0.046,0 0.092,0.023 0.123,0.054" style="fill:#fff;fill-rule:nonzero;"/><path d="M446.217,7.505l1.282,0l-0.645,-1.837l-0.637,1.837Zm-0.37,1.046l-0.376,1.06l-1.107,0l1.875,-5.327c0.023,-0.076 0.085,-0.122 0.162,-0.122l0.915,0c0.068,0 0.138,0.046 0.161,0.115l1.875,5.334l-1.106,0l-0.377,-1.06l-2.022,0" style="fill:#fff;fill-rule:nonzero;"/><rect x="450.117" y="4.162" width="1.045" height="5.449" style="fill:#fff;"/></svg>
