<?xml version="1.0" encoding="UTF-8" standalone="no"?>
<!-- Created with Inkscape (http://www.inkscape.org/) -->

<svg
   version="1.1"
   id="svg1"
   width="257.33334"
   height="78.666664"
   viewBox="0 0 257.33334 78.666664"
   xmlns="http://www.w3.org/2000/svg"
   xmlns:svg="http://www.w3.org/2000/svg">
  <defs
     id="defs1">
    <clipPath
       clipPathUnits="userSpaceOnUse"
       id="clipPath1">
      <path
         d="M 0,0 H 194 V 59 H 0 Z"
         id="path1" />
    </clipPath>
    <clipPath
       clipPathUnits="userSpaceOnUse"
       id="clipPath3">
      <path
         d="M 0,0 H 192.5 V 58 H 0 Z"
         transform="scale(1.3333333)"
         id="path3" />
    </clipPath>
    <clipPath
       clipPathUnits="userSpaceOnUse"
       id="clipPath4">
      <path
         d="M 0,0 H 194 V 59 H 0 Z"
         id="path4" />
    </clipPath>
    <clipPath
       clipPathUnits="userSpaceOnUse"
       id="clipPath6">
      <path
         d="M 0,0 H 192.5 V 58 H 0 Z"
         transform="scale(1.3333333)"
         id="path6" />
    </clipPath>
    <clipPath
       clipPathUnits="userSpaceOnUse"
       id="clipPath7">
      <path
         d="M 0,0 H 194 V 59 H 0 Z"
         id="path7" />
    </clipPath>
    <clipPath
       clipPathUnits="userSpaceOnUse"
       id="clipPath9">
      <path
         d="M 0,0 H 192.5 V 58 H 0 Z"
         transform="scale(1.3333333)"
         id="path9" />
    </clipPath>
    <clipPath
       clipPathUnits="userSpaceOnUse"
       id="clipPath10">
      <path
         d="M 0,0 H 194 V 59 H 0 Z"
         id="path10" />
    </clipPath>
    <clipPath
       clipPathUnits="userSpaceOnUse"
       id="clipPath12">
      <path
         d="M 0,0 H 192.5 V 58 H 0 Z"
         transform="scale(1.3333333)"
         id="path12" />
    </clipPath>
    <clipPath
       clipPathUnits="userSpaceOnUse"
       id="clipPath13">
      <path
         d="M 0,0 H 194 V 59 H 0 Z"
         id="path13" />
    </clipPath>
    <clipPath
       clipPathUnits="userSpaceOnUse"
       id="clipPath15">
      <path
         d="M 0,0 H 192.5 V 58 H 0 Z"
         transform="scale(1.3333333)"
         id="path15" />
    </clipPath>
    <clipPath
       clipPathUnits="userSpaceOnUse"
       id="clipPath16">
      <path
         d="M 0,0 H 194 V 59 H 0 Z"
         id="path16" />
    </clipPath>
    <clipPath
       clipPathUnits="userSpaceOnUse"
       id="clipPath18">
      <path
         d="M 0,0 H 192.5 V 58 H 0 Z"
         transform="scale(1.3333333)"
         id="path18" />
    </clipPath>
    <clipPath
       clipPathUnits="userSpaceOnUse"
       id="clipPath19">
      <path
         d="M 0,0 H 194 V 59 H 0 Z"
         id="path19" />
    </clipPath>
    <clipPath
       clipPathUnits="userSpaceOnUse"
       id="clipPath21">
      <path
         d="M 0,0 H 192.5 V 58 H 0 Z"
         transform="scale(1.3333333)"
         id="path21" />
    </clipPath>
    <clipPath
       clipPathUnits="userSpaceOnUse"
       id="clipPath22">
      <path
         d="M 0,0 H 194 V 59 H 0 Z"
         id="path22" />
    </clipPath>
    <clipPath
       clipPathUnits="userSpaceOnUse"
       id="clipPath24">
      <path
         d="M 0,0 H 192.5 V 58 H 0 Z"
         transform="scale(1.3333333)"
         id="path24" />
    </clipPath>
    <clipPath
       clipPathUnits="userSpaceOnUse"
       id="clipPath25">
      <path
         d="M 0,0 H 194 V 59 H 0 Z"
         id="path25" />
    </clipPath>
    <clipPath
       clipPathUnits="userSpaceOnUse"
       id="clipPath27">
      <path
         d="M 0,0 H 192.5 V 58 H 0 Z"
         transform="scale(1.3333333)"
         id="path27" />
    </clipPath>
    <clipPath
       clipPathUnits="userSpaceOnUse"
       id="clipPath28">
      <path
         d="M 0,0 H 194 V 59 H 0 Z"
         id="path28" />
    </clipPath>
    <clipPath
       clipPathUnits="userSpaceOnUse"
       id="clipPath30">
      <path
         d="M 0,0 H 192.5 V 58 H 0 Z"
         transform="scale(1.3333333)"
         id="path30" />
    </clipPath>
    <clipPath
       clipPathUnits="userSpaceOnUse"
       id="clipPath31">
      <path
         d="M 0,0 H 194 V 59 H 0 Z"
         id="path31" />
    </clipPath>
    <clipPath
       clipPathUnits="userSpaceOnUse"
       id="clipPath33">
      <path
         d="M 0,0 H 192.5 V 58 H 0 Z"
         transform="scale(1.3333333)"
         id="path33" />
    </clipPath>
    <clipPath
       clipPathUnits="userSpaceOnUse"
       id="clipPath34">
      <path
         d="M 0,0 H 194 V 59 H 0 Z"
         id="path34" />
    </clipPath>
    <clipPath
       clipPathUnits="userSpaceOnUse"
       id="clipPath36">
      <path
         d="M 0,0 H 192.5 V 58 H 0 Z"
         transform="scale(1.3333333)"
         id="path36" />
    </clipPath>
    <clipPath
       clipPathUnits="userSpaceOnUse"
       id="clipPath37">
      <path
         d="M 0,0 H 194 V 59 H 0 Z"
         id="path37" />
    </clipPath>
    <clipPath
       clipPathUnits="userSpaceOnUse"
       id="clipPath39">
      <path
         d="M 0,0 H 192.5 V 58 H 0 Z"
         transform="scale(1.3333333)"
         id="path39" />
    </clipPath>
    <clipPath
       clipPathUnits="userSpaceOnUse"
       id="clipPath40">
      <path
         d="M 0,0 H 194 V 59 H 0 Z"
         id="path40" />
    </clipPath>
    <clipPath
       clipPathUnits="userSpaceOnUse"
       id="clipPath42">
      <path
         d="M 0,0 H 192.5 V 58 H 0 Z"
         transform="scale(1.3333333)"
         id="path42" />
    </clipPath>
    <clipPath
       clipPathUnits="userSpaceOnUse"
       id="clipPath43">
      <path
         d="M 0,0 H 194 V 59 H 0 Z"
         id="path43" />
    </clipPath>
    <clipPath
       clipPathUnits="userSpaceOnUse"
       id="clipPath45">
      <path
         d="M 0,0 H 192.5 V 58 H 0 Z"
         transform="scale(1.3333333)"
         id="path45" />
    </clipPath>
    <clipPath
       clipPathUnits="userSpaceOnUse"
       id="clipPath46">
      <path
         d="M 0,0 H 194 V 59 H 0 Z"
         id="path46" />
    </clipPath>
    <clipPath
       clipPathUnits="userSpaceOnUse"
       id="clipPath48">
      <path
         d="M 0,0 H 192.5 V 58 H 0 Z"
         transform="scale(1.3333333)"
         id="path48" />
    </clipPath>
    <clipPath
       clipPathUnits="userSpaceOnUse"
       id="clipPath49">
      <path
         d="M 0,0 H 194 V 59 H 0 Z"
         id="path49" />
    </clipPath>
    <clipPath
       clipPathUnits="userSpaceOnUse"
       id="clipPath51">
      <path
         d="M 0,0 H 192.5 V 58 H 0 Z"
         transform="scale(1.3333333)"
         id="path51" />
    </clipPath>
    <clipPath
       clipPathUnits="userSpaceOnUse"
       id="clipPath52">
      <path
         d="M 0,0 H 194 V 59 H 0 Z"
         id="path52" />
    </clipPath>
    <clipPath
       clipPathUnits="userSpaceOnUse"
       id="clipPath54">
      <path
         d="M 0,0 H 192.5 V 58 H 0 Z"
         transform="scale(1.3333333)"
         id="path54" />
    </clipPath>
    <clipPath
       clipPathUnits="userSpaceOnUse"
       id="clipPath55">
      <path
         d="M 0,0 H 194 V 59 H 0 Z"
         id="path55" />
    </clipPath>
    <clipPath
       clipPathUnits="userSpaceOnUse"
       id="clipPath57">
      <path
         d="M 0,0 H 192.5 V 58 H 0 Z"
         transform="scale(1.3333333)"
         id="path57" />
    </clipPath>
    <clipPath
       clipPathUnits="userSpaceOnUse"
       id="clipPath58">
      <path
         d="M 0,0 H 194 V 59 H 0 Z"
         id="path58" />
    </clipPath>
    <clipPath
       clipPathUnits="userSpaceOnUse"
       id="clipPath60">
      <path
         d="M 0,0 H 192.5 V 58 H 0 Z"
         transform="scale(1.3333333)"
         id="path60" />
    </clipPath>
    <clipPath
       clipPathUnits="userSpaceOnUse"
       id="clipPath61">
      <path
         d="M 0,0 H 194 V 59 H 0 Z"
         id="path61" />
    </clipPath>
    <clipPath
       clipPathUnits="userSpaceOnUse"
       id="clipPath63">
      <path
         d="M 0,0 H 192.5 V 58 H 0 Z"
         transform="scale(1.3333333)"
         id="path63" />
    </clipPath>
    <clipPath
       clipPathUnits="userSpaceOnUse"
       id="clipPath64">
      <path
         d="M 0,0 H 194 V 59 H 0 Z"
         id="path64" />
    </clipPath>
    <clipPath
       clipPathUnits="userSpaceOnUse"
       id="clipPath66">
      <path
         d="M 0,0 H 192.5 V 58 H 0 Z"
         transform="scale(1.3333333)"
         id="path66" />
    </clipPath>
    <clipPath
       clipPathUnits="userSpaceOnUse"
       id="clipPath67">
      <path
         d="M 0,0 H 194 V 59 H 0 Z"
         id="path67" />
    </clipPath>
    <clipPath
       clipPathUnits="userSpaceOnUse"
       id="clipPath69">
      <path
         d="M 0,0 H 192.5 V 58 H 0 Z"
         transform="scale(1.3333333)"
         id="path69" />
    </clipPath>
    <clipPath
       clipPathUnits="userSpaceOnUse"
       id="clipPath70">
      <path
         d="M 0,0 H 194 V 59 H 0 Z"
         id="path70" />
    </clipPath>
    <clipPath
       clipPathUnits="userSpaceOnUse"
       id="clipPath72">
      <path
         d="M 0,0 H 192.5 V 58 H 0 Z"
         transform="scale(1.3333333)"
         id="path72" />
    </clipPath>
    <clipPath
       clipPathUnits="userSpaceOnUse"
       id="clipPath73">
      <path
         d="M 0,0 H 194 V 59 H 0 Z"
         id="path73" />
    </clipPath>
    <clipPath
       clipPathUnits="userSpaceOnUse"
       id="clipPath75">
      <path
         d="M 0,0 H 192.5 V 58 H 0 Z"
         transform="scale(1.3333333)"
         id="path75" />
    </clipPath>
    <clipPath
       clipPathUnits="userSpaceOnUse"
       id="clipPath76">
      <path
         d="M 0,0 H 194 V 59 H 0 Z"
         id="path76" />
    </clipPath>
    <clipPath
       clipPathUnits="userSpaceOnUse"
       id="clipPath78">
      <path
         d="M 0,0 H 192.5 V 58 H 0 Z"
         transform="scale(1.3333333)"
         id="path78" />
    </clipPath>
    <clipPath
       clipPathUnits="userSpaceOnUse"
       id="clipPath79">
      <path
         d="M 0,0 H 194 V 59 H 0 Z"
         id="path79" />
    </clipPath>
    <clipPath
       clipPathUnits="userSpaceOnUse"
       id="clipPath81">
      <path
         d="M 0,0 H 192.5 V 58 H 0 Z"
         transform="scale(1.3333333)"
         id="path81" />
    </clipPath>
    <clipPath
       clipPathUnits="userSpaceOnUse"
       id="clipPath82">
      <path
         d="M 0,0 H 194 V 59 H 0 Z"
         id="path82" />
    </clipPath>
    <clipPath
       clipPathUnits="userSpaceOnUse"
       id="clipPath84">
      <path
         d="M 0,0 H 192.5 V 58 H 0 Z"
         transform="scale(1.3333333)"
         id="path84" />
    </clipPath>
    <clipPath
       clipPathUnits="userSpaceOnUse"
       id="clipPath85">
      <path
         d="M 0,0 H 194 V 59 H 0 Z"
         id="path85" />
    </clipPath>
    <clipPath
       clipPathUnits="userSpaceOnUse"
       id="clipPath87">
      <path
         d="M 0,0 H 192.5 V 58 H 0 Z"
         transform="scale(1.3333333)"
         id="path87" />
    </clipPath>
    <clipPath
       clipPathUnits="userSpaceOnUse"
       id="clipPath88">
      <path
         d="M 0,0 H 194 V 59 H 0 Z"
         id="path88" />
    </clipPath>
    <clipPath
       clipPathUnits="userSpaceOnUse"
       id="clipPath90">
      <path
         d="M 0,0 H 192.5 V 58 H 0 Z"
         transform="scale(1.3333333)"
         id="path90" />
    </clipPath>
    <clipPath
       clipPathUnits="userSpaceOnUse"
       id="clipPath91">
      <path
         d="M 0,0 H 194 V 59 H 0 Z"
         id="path91" />
    </clipPath>
    <clipPath
       clipPathUnits="userSpaceOnUse"
       id="clipPath93">
      <path
         d="M 0,0 H 192.5 V 58 H 0 Z"
         transform="scale(1.3333333)"
         id="path93" />
    </clipPath>
    <clipPath
       clipPathUnits="userSpaceOnUse"
       id="clipPath94">
      <path
         d="M 0,0 H 194 V 59 H 0 Z"
         id="path94" />
    </clipPath>
    <clipPath
       clipPathUnits="userSpaceOnUse"
       id="clipPath96">
      <path
         d="M 0,0 H 192.5 V 58 H 0 Z"
         transform="scale(1.3333333)"
         id="path96" />
    </clipPath>
    <clipPath
       clipPathUnits="userSpaceOnUse"
       id="clipPath97">
      <path
         d="M 0,0 H 194 V 59 H 0 Z"
         id="path97" />
    </clipPath>
    <clipPath
       clipPathUnits="userSpaceOnUse"
       id="clipPath99">
      <path
         d="M 0,0 H 192.5 V 58 H 0 Z"
         transform="scale(1.3333333)"
         id="path99" />
    </clipPath>
    <clipPath
       clipPathUnits="userSpaceOnUse"
       id="clipPath100">
      <path
         d="M 0,0 H 194 V 59 H 0 Z"
         id="path100" />
    </clipPath>
    <clipPath
       clipPathUnits="userSpaceOnUse"
       id="clipPath102">
      <path
         d="M 0,0 H 192.5 V 58 H 0 Z"
         transform="scale(1.3333333)"
         id="path102" />
    </clipPath>
    <clipPath
       clipPathUnits="userSpaceOnUse"
       id="clipPath103">
      <path
         d="M 0,0 H 194 V 59 H 0 Z"
         id="path103" />
    </clipPath>
    <clipPath
       clipPathUnits="userSpaceOnUse"
       id="clipPath105">
      <path
         d="M 0,0 H 192.5 V 58 H 0 Z"
         transform="scale(1.3333333)"
         id="path105" />
    </clipPath>
    <clipPath
       clipPathUnits="userSpaceOnUse"
       id="clipPath106">
      <path
         d="M 0,0 H 194 V 59 H 0 Z"
         id="path106" />
    </clipPath>
    <clipPath
       clipPathUnits="userSpaceOnUse"
       id="clipPath108">
      <path
         d="M 0,0 H 192.5 V 58 H 0 Z"
         transform="scale(1.3333333)"
         id="path108" />
    </clipPath>
    <clipPath
       clipPathUnits="userSpaceOnUse"
       id="clipPath109">
      <path
         d="M 0,0 H 194 V 59 H 0 Z"
         id="path109" />
    </clipPath>
    <clipPath
       clipPathUnits="userSpaceOnUse"
       id="clipPath111">
      <path
         d="M 0,0 H 192.5 V 58 H 0 Z"
         transform="scale(1.3333333)"
         id="path111" />
    </clipPath>
    <clipPath
       clipPathUnits="userSpaceOnUse"
       id="clipPath112">
      <path
         d="M 0,0 H 194 V 59 H 0 Z"
         id="path112" />
    </clipPath>
    <clipPath
       clipPathUnits="userSpaceOnUse"
       id="clipPath114">
      <path
         d="M 0,0 H 192.5 V 58 H 0 Z"
         transform="scale(1.3333333)"
         id="path114" />
    </clipPath>
    <clipPath
       clipPathUnits="userSpaceOnUse"
       id="clipPath115">
      <path
         d="M 0,0 H 194 V 59 H 0 Z"
         id="path115" />
    </clipPath>
    <clipPath
       clipPathUnits="userSpaceOnUse"
       id="clipPath117">
      <path
         d="M 0,0 H 192.5 V 58 H 0 Z"
         transform="scale(1.3333333)"
         id="path117" />
    </clipPath>
    <clipPath
       clipPathUnits="userSpaceOnUse"
       id="clipPath118">
      <path
         d="M 0,0 H 194 V 59 H 0 Z"
         id="path118" />
    </clipPath>
    <clipPath
       clipPathUnits="userSpaceOnUse"
       id="clipPath120">
      <path
         d="M 0,0 H 192.5 V 58 H 0 Z"
         transform="scale(1.3333333)"
         id="path120" />
    </clipPath>
    <clipPath
       clipPathUnits="userSpaceOnUse"
       id="clipPath121">
      <path
         d="M 0,0 H 194 V 59 H 0 Z"
         id="path121" />
    </clipPath>
    <clipPath
       clipPathUnits="userSpaceOnUse"
       id="clipPath123">
      <path
         d="M 0,0 H 192.5 V 58 H 0 Z"
         transform="scale(1.3333333)"
         id="path123" />
    </clipPath>
    <clipPath
       clipPathUnits="userSpaceOnUse"
       id="clipPath124">
      <path
         d="M 0,0 H 194 V 59 H 0 Z"
         id="path124" />
    </clipPath>
    <clipPath
       clipPathUnits="userSpaceOnUse"
       id="clipPath126">
      <path
         d="M 0,0 H 192.5 V 58 H 0 Z"
         transform="scale(1.3333333)"
         id="path126" />
    </clipPath>
    <clipPath
       clipPathUnits="userSpaceOnUse"
       id="clipPath127">
      <path
         d="M 0,0 H 194 V 59 H 0 Z"
         id="path127" />
    </clipPath>
    <clipPath
       clipPathUnits="userSpaceOnUse"
       id="clipPath129">
      <path
         d="M 0,0 H 192.5 V 58 H 0 Z"
         transform="scale(1.3333333)"
         id="path129" />
    </clipPath>
    <clipPath
       clipPathUnits="userSpaceOnUse"
       id="clipPath130">
      <path
         d="M 0,0 H 194 V 59 H 0 Z"
         id="path130" />
    </clipPath>
    <clipPath
       clipPathUnits="userSpaceOnUse"
       id="clipPath132">
      <path
         d="M 0,0 H 192.5 V 58 H 0 Z"
         transform="scale(1.3333333)"
         id="path132" />
    </clipPath>
    <clipPath
       clipPathUnits="userSpaceOnUse"
       id="clipPath133">
      <path
         d="M 0,0 H 194 V 59 H 0 Z"
         id="path133" />
    </clipPath>
    <clipPath
       clipPathUnits="userSpaceOnUse"
       id="clipPath135">
      <path
         d="M 0,0 H 192.5 V 58 H 0 Z"
         transform="scale(1.3333333)"
         id="path135" />
    </clipPath>
    <clipPath
       clipPathUnits="userSpaceOnUse"
       id="clipPath136">
      <path
         d="M 0,0 H 194 V 59 H 0 Z"
         id="path136" />
    </clipPath>
    <clipPath
       clipPathUnits="userSpaceOnUse"
       id="clipPath138">
      <path
         d="M 0,0 H 192.5 V 58 H 0 Z"
         transform="scale(1.3333333)"
         id="path138" />
    </clipPath>
    <clipPath
       clipPathUnits="userSpaceOnUse"
       id="clipPath139">
      <path
         d="M 0,0 H 194 V 59 H 0 Z"
         id="path139" />
    </clipPath>
    <clipPath
       clipPathUnits="userSpaceOnUse"
       id="clipPath141">
      <path
         d="M 0,0 H 192.5 V 58 H 0 Z"
         transform="scale(1.3333333)"
         id="path141" />
    </clipPath>
    <clipPath
       clipPathUnits="userSpaceOnUse"
       id="clipPath142">
      <path
         d="M 0,0 H 194 V 59 H 0 Z"
         id="path142" />
    </clipPath>
    <clipPath
       clipPathUnits="userSpaceOnUse"
       id="clipPath144">
      <path
         d="M 0,0 H 192.5 V 58 H 0 Z"
         transform="scale(1.3333333)"
         id="path144" />
    </clipPath>
  </defs>
  <g
     id="g1">
    <g
       id="g2"
       clip-path="url(#clipPath3)">
      <path
         d="m 173.031,13.16 h 5.051 l -2.539,-7.23 z m -1.453,4.113 -1.48,4.176 h -4.36 l 7.383,-20.965 c 0.09,-0.3 0.332,-0.48 0.633,-0.48 h 3.601 c 0.274,0 0.543,0.18 0.637,0.453 l 7.379,20.992 h -4.355 l -1.481,-4.176 h -7.957"
         style="fill:#ffffff;fill-opacity:1;fill-rule:nonzero;stroke:none"
         transform="scale(1.3333333)"
         clip-path="url(#clipPath1)"
         id="path2" />
    </g>
    <g
       id="g5"
       clip-path="url(#clipPath6)">
      <path
         d="m 188.387,0.004 h 4.113 v 21.445 h -4.113 z"
         style="fill:#ffffff;fill-opacity:1;fill-rule:nonzero;stroke:none"
         transform="scale(1.3333333)"
         clip-path="url(#clipPath4)"
         id="path5" />
    </g>
    <g
       id="g8"
       clip-path="url(#clipPath9)">
      <path
         d="M 12.07,8.688 V 0 h 4.121 V 21.465 H 12.07 v -8.66 H 4.715 v 8.66 H 0.598 V 0 h 4.117 v 8.688 h 7.355"
         style="fill:#ffffff;fill-opacity:1;fill-rule:nonzero;stroke:none"
         transform="scale(1.3333333)"
         clip-path="url(#clipPath7)"
         id="path8" />
    </g>
    <g
       id="g11"
       clip-path="url(#clipPath12)">
      <path
         d="m 34.336,0 v 4.117 h -9.418 v 4.571 h 8.176 v 4.117 h -8.176 v 4.543 h 9.418 v 4.117 H 22.832 c -0.184,0 -0.367,-0.063 -0.488,-0.215 L 21.016,19.918 C 20.863,19.797 20.801,19.617 20.801,19.434 V 2.027 c 0,-0.179 0.062,-0.363 0.215,-0.484 L 22.344,0.211 C 22.465,0.09 22.648,0 22.832,0 h 11.504"
         style="fill:#ffffff;fill-opacity:1;fill-rule:nonzero;stroke:none"
         transform="scale(1.3333333)"
         clip-path="url(#clipPath10)"
         id="path11" />
    </g>
    <g
       id="g14"
       clip-path="url(#clipPath15)">
      <path
         d="m 40.703,21.465 c -0.183,0 -0.363,-0.063 -0.484,-0.215 L 38.887,19.918 C 38.734,19.797 38.672,19.617 38.672,19.434 V 0 h 4.117 v 17.348 h 8.961 v 4.117 H 40.703"
         style="fill:#ffffff;fill-opacity:1;fill-rule:nonzero;stroke:none"
         transform="scale(1.3333333)"
         clip-path="url(#clipPath13)"
         id="path14" />
    </g>
    <g
       id="g17"
       clip-path="url(#clipPath18)">
      <path
         d="M 73.855,0 V 21.465 H 69.738 V 9.598 l -3.355,7.019 c -0.121,0.242 -0.363,0.395 -0.61,0.395 h -2.421 c -0.27,0 -0.512,-0.153 -0.633,-0.395 L 59.359,9.598 V 21.465 H 55.242 V 0 h 4.117 L 64.562,10.898 69.738,0 h 4.117"
         style="fill:#ffffff;fill-opacity:1;fill-rule:nonzero;stroke:none"
         transform="scale(1.3333333)"
         clip-path="url(#clipPath16)"
         id="path17" />
    </g>
    <g
       id="g20"
       clip-path="url(#clipPath21)">
      <path
         d="M 89.672,8.688 V 0 h 4.121 v 21.465 h -4.121 v -8.66 h -7.356 v 8.66 H 78.199 V 0 h 4.117 v 8.688 h 7.356"
         style="fill:#ffffff;fill-opacity:1;fill-rule:nonzero;stroke:none"
         transform="scale(1.3333333)"
         clip-path="url(#clipPath19)"
         id="path20" />
    </g>
    <g
       id="g23"
       clip-path="url(#clipPath24)">
      <path
         d="M 109.363,15.348 V 6.145 c 0,-0.18 -0.093,-0.364 -0.211,-0.485 l -1.3,-1.332 c -0.157,-0.121 -0.336,-0.211 -0.516,-0.211 h -3.695 c -0.18,0 -0.332,0.09 -0.485,0.211 l -1.301,1.332 c -0.152,0.121 -0.21,0.305 -0.21,0.485 v 9.203 c 0,0.183 0.058,0.332 0.21,0.484 l 1.301,1.301 c 0.153,0.152 0.305,0.215 0.485,0.215 h 3.695 c 0.18,0 0.359,-0.063 0.516,-0.215 l 1.3,-1.301 c 0.118,-0.152 0.211,-0.301 0.211,-0.484 z m 0.969,-14.321 2.148,2.121 c 0.637,0.637 1,1.512 1,2.422 v 10.321 c 0,0.91 -0.363,1.789 -1,2.425 l -2.148,2.149 c -0.637,0.637 -1.516,1 -2.422,1 h -4.812 c -0.91,0 -1.817,-0.336 -2.453,-1 L 98.523,18.316 C 97.891,17.68 97.527,16.801 97.527,15.891 V 5.57 c 0,-0.91 0.364,-1.785 0.996,-2.422 l 2.122,-2.121 C 101.309,0.363 102.188,0 103.098,0 h 4.812 c 0.906,0 1.754,0.391 2.422,1.027"
         style="fill:#ffffff;fill-opacity:1;fill-rule:nonzero;stroke:none"
         transform="scale(1.3333333)"
         clip-path="url(#clipPath22)"
         id="path23" />
    </g>
    <g
       id="g26"
       clip-path="url(#clipPath27)">
      <path
         d="m 119.152,21.465 c -0.183,0 -0.367,-0.063 -0.488,-0.215 l -1.328,-1.332 c -0.152,-0.121 -0.215,-0.301 -0.215,-0.484 V 0 h 4.117 v 17.348 h 8.961 v 4.117 h -11.047"
         style="fill:#ffffff;fill-opacity:1;fill-rule:nonzero;stroke:none"
         transform="scale(1.3333333)"
         clip-path="url(#clipPath25)"
         id="path26" />
    </g>
    <g
       id="g29"
       clip-path="url(#clipPath30)">
      <path
         d="M 129.902,4.117 V 0 h 15.5 v 4.117 h -5.687 v 17.348 h -4.117 V 4.117 h -5.696"
         style="fill:#ffffff;fill-opacity:1;fill-rule:nonzero;stroke:none"
         transform="scale(1.3333333)"
         clip-path="url(#clipPath28)"
         id="path29" />
    </g>
    <g
       id="g32"
       clip-path="url(#clipPath33)">
      <path
         d="m 161.34,0.211 1.332,1.332 c 0.121,0.121 0.211,0.305 0.211,0.484 v 1.059 l -9.024,14.262 h 8.903 v 4.117 h -12.289 c -0.184,0 -0.368,-0.063 -0.489,-0.215 l -1.328,-1.332 c -0.121,-0.121 -0.215,-0.301 -0.215,-0.484 v -1.239 l 8.903,-14.078 h -9.02 V 0 h 12.531 c 0.18,0 0.364,0.09 0.485,0.211"
         style="fill:#ffffff;fill-opacity:1;fill-rule:nonzero;stroke:none"
         transform="scale(1.3333333)"
         clip-path="url(#clipPath31)"
         id="path32" />
    </g>
    <g
       id="g35"
       clip-path="url(#clipPath36)">
      <path
         d="m 4.012,33.004 -1.61,5.078 H 5.617 Z M 4.516,31.516 8.035,41.785 H 6.84 L 5.938,39.078 H 2.098 L 1.18,41.785 H 0 L 3.52,31.516 h 0.996"
         style="fill:#ffffff;fill-opacity:1;fill-rule:nonzero;stroke:none"
         transform="scale(1.3333333)"
         clip-path="url(#clipPath34)"
         id="path35" />
    </g>
    <g
       id="g38"
       clip-path="url(#clipPath39)">
      <path
         d="m 11.582,36.43 c 1.242,0 1.594,-0.032 2.066,-0.2 0.719,-0.257 1.149,-0.918 1.149,-1.773 0,-0.766 -0.367,-1.379 -0.965,-1.637 -0.488,-0.215 -0.824,-0.246 -2.281,-0.246 h -0.688 v 3.856 z m -0.059,-4.852 c 1.575,0 2.157,0.063 2.829,0.32 1.027,0.383 1.656,1.364 1.656,2.575 0,1.343 -0.707,2.265 -2.098,2.769 l 2.676,4.543 h -1.375 l -2.57,-4.359 h -1.778 v 4.359 H 9.715 V 31.578 h 1.808"
         style="fill:#ffffff;fill-opacity:1;fill-rule:nonzero;stroke:none"
         transform="scale(1.3333333)"
         clip-path="url(#clipPath37)"
         id="path38" />
    </g>
    <g
       id="g41"
       clip-path="url(#clipPath42)">
      <path
         d="m 23.656,31.578 v 0.996 h -2.664 v 9.211 h -1.148 v -9.211 h -2.649 v -0.996 h 6.461"
         style="fill:#ffffff;fill-opacity:1;fill-rule:nonzero;stroke:none"
         transform="scale(1.3333333)"
         clip-path="url(#clipPath40)"
         id="path41" />
    </g>
    <g
       id="g44"
       clip-path="url(#clipPath45)">
      <path
         d="m 25.305,31.578 h 1.18 v 10.207 h -1.18 z"
         style="fill:#ffffff;fill-opacity:1;fill-rule:nonzero;stroke:none"
         transform="scale(1.3333333)"
         clip-path="url(#clipPath43)"
         id="path44" />
    </g>
    <g
       id="g47"
       clip-path="url(#clipPath48)">
      <path
         d="m 34.41,36 v 0.996 h -4.133 v 4.789 H 29.133 V 31.578 h 5.597 v 0.996 H 30.277 V 36 h 4.133"
         style="fill:#ffffff;fill-opacity:1;fill-rule:nonzero;stroke:none"
         transform="scale(1.3333333)"
         clip-path="url(#clipPath46)"
         id="path47" />
    </g>
    <g
       id="g50"
       clip-path="url(#clipPath51)">
      <path
         d="m 36.613,31.578 h 1.176 v 10.207 h -1.176 z"
         style="fill:#ffffff;fill-opacity:1;fill-rule:nonzero;stroke:none"
         transform="scale(1.3333333)"
         clip-path="url(#clipPath49)"
         id="path50" />
    </g>
    <g
       id="g53"
       clip-path="url(#clipPath54)">
      <path
         d="m 46.422,34.41 c -0.293,-1.332 -1.086,-2.004 -2.328,-2.004 -1.821,0 -2.969,1.668 -2.969,4.285 0,2.633 1.148,4.27 2.984,4.27 1.426,0 2.297,-0.934 2.465,-2.633 h 1.086 c -0.183,2.313 -1.469,3.641 -3.504,3.641 -2.601,0 -4.254,-2.051 -4.254,-5.246 0,-1.84 0.52,-3.309 1.485,-4.258 0.703,-0.672 1.699,-1.07 2.722,-1.07 1.133,0 2.145,0.476 2.743,1.269 0.351,0.492 0.535,0.965 0.64,1.746 h -1.07"
         style="fill:#ffffff;fill-opacity:1;fill-rule:nonzero;stroke:none"
         transform="scale(1.3333333)"
         clip-path="url(#clipPath52)"
         id="path53" />
    </g>
    <g
       id="g56"
       clip-path="url(#clipPath57)">
      <path
         d="m 49.664,31.578 h 1.18 v 10.207 h -1.18 z"
         style="fill:#ffffff;fill-opacity:1;fill-rule:nonzero;stroke:none"
         transform="scale(1.3333333)"
         clip-path="url(#clipPath55)"
         id="path56" />
    </g>
    <g
       id="g59"
       clip-path="url(#clipPath60)">
      <path
         d="m 56.488,33.004 -1.605,5.078 h 3.211 z m 0.504,-1.488 3.52,10.269 H 59.32 l -0.906,-2.707 h -3.84 l -0.918,2.707 h -1.179 l 3.519,-10.269 h 0.996"
         style="fill:#ffffff;fill-opacity:1;fill-rule:nonzero;stroke:none"
         transform="scale(1.3333333)"
         clip-path="url(#clipPath58)"
         id="path59" />
    </g>
    <g
       id="g62"
       clip-path="url(#clipPath63)">
      <path
         d="m 63.371,31.578 v 9.215 h 4.363 v 0.992 H 62.195 V 31.578 h 1.176"
         style="fill:#ffffff;fill-opacity:1;fill-rule:nonzero;stroke:none"
         transform="scale(1.3333333)"
         clip-path="url(#clipPath61)"
         id="path62" />
    </g>
    <g
       id="g65"
       clip-path="url(#clipPath66)">
      <path
         d="m 73.363,31.578 h 1.18 v 10.207 h -1.18 z"
         style="fill:#ffffff;fill-opacity:1;fill-rule:nonzero;stroke:none"
         transform="scale(1.3333333)"
         clip-path="url(#clipPath64)"
         id="path65" />
    </g>
    <g
       id="g68"
       clip-path="url(#clipPath69)">
      <path
         d="m 78.426,31.578 4.898,8.496 v -8.496 h 1.071 v 10.207 h -1.254 l -4.868,-8.476 v 8.476 H 77.188 V 31.578 h 1.238"
         style="fill:#ffffff;fill-opacity:1;fill-rule:nonzero;stroke:none"
         transform="scale(1.3333333)"
         clip-path="url(#clipPath67)"
         id="path68" />
    </g>
    <g
       id="g71"
       clip-path="url(#clipPath72)">
      <path
         d="m 92.535,31.578 v 0.996 h -2.664 v 9.211 h -1.148 v -9.211 h -2.645 v -0.996 h 6.457"
         style="fill:#ffffff;fill-opacity:1;fill-rule:nonzero;stroke:none"
         transform="scale(1.3333333)"
         clip-path="url(#clipPath70)"
         id="path71" />
    </g>
    <g
       id="g74"
       clip-path="url(#clipPath75)">
      <path
         d="m 99.48,36 v 0.996 h -4.132 v 3.797 h 4.562 v 0.992 H 94.203 V 31.578 h 5.598 v 0.996 H 95.348 V 36 h 4.132"
         style="fill:#ffffff;fill-opacity:1;fill-rule:nonzero;stroke:none"
         transform="scale(1.3333333)"
         clip-path="url(#clipPath73)"
         id="path74" />
    </g>
    <g
       id="g77"
       clip-path="url(#clipPath78)">
      <path
         d="m 103.105,31.578 v 9.215 h 4.364 v 0.992 H 101.93 V 31.578 h 1.175"
         style="fill:#ffffff;fill-opacity:1;fill-rule:nonzero;stroke:none"
         transform="scale(1.3333333)"
         clip-path="url(#clipPath76)"
         id="path77" />
    </g>
    <g
       id="g80"
       clip-path="url(#clipPath81)">
      <path
         d="m 110.422,31.578 v 9.215 h 4.359 v 0.992 h -5.539 V 31.578 h 1.18"
         style="fill:#ffffff;fill-opacity:1;fill-rule:nonzero;stroke:none"
         transform="scale(1.3333333)"
         clip-path="url(#clipPath79)"
         id="path80" />
    </g>
    <g
       id="g83"
       clip-path="url(#clipPath84)">
      <path
         d="m 116.539,31.578 h 1.18 v 10.207 h -1.18 z"
         style="fill:#ffffff;fill-opacity:1;fill-rule:nonzero;stroke:none"
         transform="scale(1.3333333)"
         clip-path="url(#clipPath82)"
         id="path83" />
    </g>
    <g
       id="g86"
       clip-path="url(#clipPath87)">
      <path
         d="m 127.605,36.723 v 4.191 c -0.964,0.688 -2.128,1.055 -3.371,1.055 -2.738,0 -4.406,-2.004 -4.406,-5.309 0,-3.199 1.668,-5.265 4.258,-5.265 1.91,0 3.148,1.101 3.379,3 h -1.07 c -0.305,-1.348 -1.055,-1.989 -2.309,-1.989 -1.887,0 -3.031,1.621 -3.031,4.27 0,2.707 1.175,4.285 3.199,4.285 0.766,0 1.574,-0.231 2.308,-0.676 v -2.586 l -2.066,0.016 v -0.992 h 3.109"
         style="fill:#ffffff;fill-opacity:1;fill-rule:nonzero;stroke:none"
         transform="scale(1.3333333)"
         clip-path="url(#clipPath85)"
         id="path86" />
    </g>
    <g
       id="g89"
       clip-path="url(#clipPath90)">
      <path
         d="m 135.207,36 v 0.996 h -4.133 v 3.797 h 4.563 v 0.992 H 129.93 V 31.578 h 5.597 v 0.996 h -4.453 V 36 h 4.133"
         style="fill:#ffffff;fill-opacity:1;fill-rule:nonzero;stroke:none"
         transform="scale(1.3333333)"
         clip-path="url(#clipPath88)"
         id="path89" />
    </g>
    <g
       id="g92"
       clip-path="url(#clipPath93)">
      <path
         d="m 138.895,31.578 4.894,8.496 v -8.496 h 1.07 v 10.207 h -1.254 l -4.867,-8.476 v 8.476 h -1.086 V 31.578 h 1.243"
         style="fill:#ffffff;fill-opacity:1;fill-rule:nonzero;stroke:none"
         transform="scale(1.3333333)"
         clip-path="url(#clipPath91)"
         id="path92" />
    </g>
    <g
       id="g95"
       clip-path="url(#clipPath96)">
      <path
         d="m 153.52,34.41 c -0.29,-1.332 -1.082,-2.004 -2.325,-2.004 -1.82,0 -2.968,1.668 -2.968,4.285 0,2.633 1.148,4.27 2.984,4.27 1.422,0 2.297,-0.934 2.465,-2.633 h 1.086 c -0.184,2.313 -1.469,3.641 -3.504,3.641 -2.606,0 -4.254,-2.051 -4.254,-5.246 0,-1.84 0.516,-3.309 1.48,-4.258 0.707,-0.672 1.704,-1.07 2.727,-1.07 1.133,0 2.144,0.476 2.738,1.269 0.356,0.492 0.535,0.965 0.645,1.746 h -1.074"
         style="fill:#ffffff;fill-opacity:1;fill-rule:nonzero;stroke:none"
         transform="scale(1.3333333)"
         clip-path="url(#clipPath94)"
         id="path95" />
    </g>
    <g
       id="g98"
       clip-path="url(#clipPath99)">
      <path
         d="m 162.059,36 v 0.996 h -4.133 v 3.797 h 4.562 v 0.992 h -5.711 V 31.578 h 5.602 v 0.996 h -4.453 V 36 h 4.133"
         style="fill:#ffffff;fill-opacity:1;fill-rule:nonzero;stroke:none"
         transform="scale(1.3333333)"
         clip-path="url(#clipPath97)"
         id="path98" />
    </g>
    <g
       id="g101"
       clip-path="url(#clipPath102)">
      <path
         d="M 6.992,51.41 C 6.703,50.078 5.906,49.406 4.668,49.406 c -1.82,0 -2.969,1.668 -2.969,4.285 0,2.633 1.149,4.27 2.985,4.27 1.421,0 2.296,-0.934 2.464,-2.633 h 1.086 c -0.183,2.313 -1.468,3.641 -3.504,3.641 -2.601,0 -4.257,-2.051 -4.257,-5.246 0,-1.84 0.523,-3.309 1.484,-4.258 0.707,-0.672 1.699,-1.07 2.727,-1.07 1.132,0 2.14,0.476 2.738,1.269 0.351,0.492 0.535,0.965 0.644,1.746 H 6.992"
         style="fill:#ffffff;fill-opacity:1;fill-rule:nonzero;stroke:none"
         transform="scale(1.3333333)"
         clip-path="url(#clipPath100)"
         id="path101" />
    </g>
    <g
       id="g104"
       clip-path="url(#clipPath105)">
      <path
         d="m 10.926,53.629 c 0,2.648 1.133,4.316 2.937,4.316 1.789,0 2.922,-1.652 2.922,-4.269 0,-2.586 -1.144,-4.27 -2.922,-4.27 -1.761,0 -2.937,1.699 -2.937,4.223 z m 7.086,0.047 c 0,3.152 -1.668,5.281 -4.149,5.281 -2.511,0 -4.164,-2.113 -4.164,-5.344 0,-3.058 1.731,-5.218 4.164,-5.218 2.465,0 4.149,2.144 4.149,5.281"
         style="fill:#ffffff;fill-opacity:1;fill-rule:nonzero;stroke:none"
         transform="scale(1.3333333)"
         clip-path="url(#clipPath103)"
         id="path104" />
    </g>
    <g
       id="g107"
       clip-path="url(#clipPath108)">
      <path
         d="m 20.855,53.629 c 0,2.648 1.133,4.316 2.938,4.316 1.789,0 2.922,-1.652 2.922,-4.269 0,-2.586 -1.145,-4.27 -2.922,-4.27 -1.762,0 -2.938,1.699 -2.938,4.223 z m 7.086,0.047 c 0,3.152 -1.668,5.281 -4.148,5.281 -2.512,0 -4.164,-2.113 -4.164,-5.344 0,-3.058 1.73,-5.218 4.164,-5.218 2.465,0 4.148,2.144 4.148,5.281"
         style="fill:#ffffff;fill-opacity:1;fill-rule:nonzero;stroke:none"
         transform="scale(1.3333333)"
         clip-path="url(#clipPath106)"
         id="path107" />
    </g>
    <g
       id="g110"
       clip-path="url(#clipPath111)">
      <path
         d="m 31.961,53.629 c 1.059,0 1.426,-0.031 1.898,-0.137 0.86,-0.199 1.332,-0.859 1.332,-1.851 0,-0.887 -0.382,-1.563 -1.039,-1.821 -0.507,-0.199 -0.918,-0.246 -2.312,-0.246 h -0.598 v 4.055 z m -0.184,-5.051 c 1.516,0 2.207,0.063 2.817,0.277 1.117,0.383 1.808,1.422 1.808,2.786 0,1.269 -0.582,2.234 -1.593,2.648 -0.641,0.258 -1.254,0.336 -2.817,0.336 h -0.75 v 4.16 H 30.094 V 48.578 h 1.683"
         style="fill:#ffffff;fill-opacity:1;fill-rule:nonzero;stroke:none"
         transform="scale(1.3333333)"
         clip-path="url(#clipPath109)"
         id="path110" />
    </g>
    <g
       id="g113"
       clip-path="url(#clipPath114)">
      <path
         d="m 43.469,53 v 0.996 h -4.133 v 3.797 h 4.562 v 0.992 h -5.71 V 48.578 h 5.601 v 0.996 H 39.336 V 53 h 4.133"
         style="fill:#ffffff;fill-opacity:1;fill-rule:nonzero;stroke:none"
         transform="scale(1.3333333)"
         clip-path="url(#clipPath112)"
         id="path113" />
    </g>
    <g
       id="g116"
       clip-path="url(#clipPath117)">
      <path
         d="m 47.781,53.43 c 1.242,0 1.594,-0.032 2.067,-0.2 0.718,-0.257 1.148,-0.918 1.148,-1.773 0,-0.766 -0.367,-1.379 -0.965,-1.637 -0.488,-0.215 -0.824,-0.246 -2.277,-0.246 h -0.692 v 3.856 z m -0.058,-4.852 c 1.574,0 2.156,0.063 2.828,0.32 1.027,0.383 1.656,1.364 1.656,2.575 0,1.343 -0.707,2.265 -2.098,2.769 l 2.676,4.543 H 51.41 l -2.57,-4.359 h -1.778 v 4.359 H 45.914 V 48.578 h 1.809"
         style="fill:#ffffff;fill-opacity:1;fill-rule:nonzero;stroke:none"
         transform="scale(1.3333333)"
         clip-path="url(#clipPath115)"
         id="path116" />
    </g>
    <g
       id="g119"
       clip-path="url(#clipPath120)">
      <path
         d="m 57.543,50.004 -1.605,5.078 h 3.214 z m 0.504,-1.488 3.523,10.269 h -1.195 l -0.902,-2.707 h -3.84 l -0.922,2.707 h -1.176 l 3.52,-10.269 h 0.992"
         style="fill:#ffffff;fill-opacity:1;fill-rule:nonzero;stroke:none"
         transform="scale(1.3333333)"
         clip-path="url(#clipPath118)"
         id="path119" />
    </g>
    <g
       id="g122"
       clip-path="url(#clipPath123)">
      <path
         d="m 67.859,48.578 v 0.996 h -2.664 v 9.211 h -1.148 v -9.211 h -2.649 v -0.996 h 6.461"
         style="fill:#ffffff;fill-opacity:1;fill-rule:nonzero;stroke:none"
         transform="scale(1.3333333)"
         clip-path="url(#clipPath121)"
         id="path122" />
    </g>
    <g
       id="g125"
       clip-path="url(#clipPath126)">
      <path
         d="m 69.508,48.578 h 1.18 v 10.207 h -1.18 z"
         style="fill:#ffffff;fill-opacity:1;fill-rule:nonzero;stroke:none"
         transform="scale(1.3333333)"
         clip-path="url(#clipPath124)"
         id="path125" />
    </g>
    <g
       id="g128"
       clip-path="url(#clipPath129)">
      <path
         d="m 74.023,53.629 c 0,2.648 1.133,4.316 2.938,4.316 1.793,0 2.926,-1.652 2.926,-4.269 0,-2.586 -1.149,-4.27 -2.926,-4.27 -1.758,0 -2.938,1.699 -2.938,4.223 z m 7.086,0.047 c 0,3.152 -1.668,5.281 -4.148,5.281 -2.508,0 -4.164,-2.113 -4.164,-5.344 0,-3.058 1.73,-5.218 4.164,-5.218 2.465,0 4.148,2.144 4.148,5.281"
         style="fill:#ffffff;fill-opacity:1;fill-rule:nonzero;stroke:none"
         transform="scale(1.3333333)"
         clip-path="url(#clipPath127)"
         id="path128" />
    </g>
    <g
       id="g131"
       clip-path="url(#clipPath132)">
      <path
         d="m 84.504,48.578 4.898,8.496 v -8.496 h 1.071 v 10.207 h -1.254 l -4.867,-8.476 v 8.476 H 83.266 V 48.578 h 1.238"
         style="fill:#ffffff;fill-opacity:1;fill-rule:nonzero;stroke:none"
         transform="scale(1.3333333)"
         clip-path="url(#clipPath130)"
         id="path131" />
    </g>
    <g
       id="g134"
       clip-path="url(#clipPath135)">
      <path
         d="m 98.031,48.578 v 6.016 c 0,1.562 0.059,1.957 0.367,2.418 0.383,0.597 1.133,0.933 2.094,0.933 1.117,0 1.946,-0.461 2.25,-1.254 0.168,-0.398 0.199,-0.796 0.199,-2.097 v -6.016 h 1.149 v 6.031 c 0,1.621 -0.031,1.899 -0.246,2.45 -0.489,1.207 -1.711,1.898 -3.352,1.898 -1.652,0 -2.875,-0.691 -3.367,-1.898 -0.215,-0.551 -0.242,-0.829 -0.242,-2.45 v -6.031 h 1.148"
         style="fill:#ffffff;fill-opacity:1;fill-rule:nonzero;stroke:none"
         transform="scale(1.3333333)"
         clip-path="url(#clipPath133)"
         id="path134" />
    </g>
    <g
       id="g137"
       clip-path="url(#clipPath138)">
      <path
         d="m 107.867,48.578 4.899,8.496 v -8.496 h 1.07 v 10.207 h -1.258 l -4.863,-8.476 v 8.476 h -1.086 V 48.578 h 1.238"
         style="fill:#ffffff;fill-opacity:1;fill-rule:nonzero;stroke:none"
         transform="scale(1.3333333)"
         clip-path="url(#clipPath136)"
         id="path137" />
    </g>
    <g
       id="g140"
       clip-path="url(#clipPath141)">
      <path
         d="m 116.496,48.578 h 1.18 v 10.207 h -1.18 z"
         style="fill:#ffffff;fill-opacity:1;fill-rule:nonzero;stroke:none"
         transform="scale(1.3333333)"
         clip-path="url(#clipPath139)"
         id="path140" />
    </g>
    <g
       id="g143"
       clip-path="url(#clipPath144)">
      <path
         d="m 125.785,48.578 v 0.996 h -2.664 v 9.211 h -1.148 v -9.211 h -2.649 v -0.996 h 6.461"
         style="fill:#ffffff;fill-opacity:1;fill-rule:nonzero;stroke:none"
         transform="scale(1.3333333)"
         clip-path="url(#clipPath142)"
         id="path143" />
    </g>
  </g>
</svg>
