<?xml version="1.0" encoding="UTF-8" standalone="no"?>
<!-- Created with Inkscape (http://www.inkscape.org/) -->

<svg
   version="1.1"
   id="svg1"
   width="255.864"
   height="28.619999"
   viewBox="0 0 255.864 28.619999"
   xmlns="http://www.w3.org/2000/svg"
   xmlns:svg="http://www.w3.org/2000/svg">
  <defs
     id="defs1">
    <clipPath
       clipPathUnits="userSpaceOnUse"
       id="clipPath1">
      <path
         d="M 0,0 H 192 V 22 H 0 Z"
         id="path1" />
    </clipPath>
    <clipPath
       clipPathUnits="userSpaceOnUse"
       id="clipPath2">
      <path
         d="M 0,0 H 192 V 22 H 0 Z"
         id="path2" />
    </clipPath>
    <clipPath
       clipPathUnits="userSpaceOnUse"
       id="clipPath3">
      <path
         d="M 0,0 H 192 V 22 H 0 Z"
         id="path3" />
    </clipPath>
    <clipPath
       clipPathUnits="userSpaceOnUse"
       id="clipPath4">
      <path
         d="M 0,0 H 192 V 22 H 0 Z"
         id="path4" />
    </clipPath>
    <clipPath
       clipPathUnits="userSpaceOnUse"
       id="clipPath5">
      <path
         d="M 0,0 H 192 V 22 H 0 Z"
         id="path5" />
    </clipPath>
    <clipPath
       clipPathUnits="userSpaceOnUse"
       id="clipPath6">
      <path
         d="M 0,0 H 192 V 22 H 0 Z"
         id="path6" />
    </clipPath>
    <clipPath
       clipPathUnits="userSpaceOnUse"
       id="clipPath7">
      <path
         d="M 0,0 H 192 V 22 H 0 Z"
         id="path7" />
    </clipPath>
    <clipPath
       clipPathUnits="userSpaceOnUse"
       id="clipPath8">
      <path
         d="M 0,0 H 192 V 22 H 0 Z"
         id="path8" />
    </clipPath>
    <clipPath
       clipPathUnits="userSpaceOnUse"
       id="clipPath9">
      <path
         d="M 0,0 H 192 V 22 H 0 Z"
         id="path9" />
    </clipPath>
    <clipPath
       clipPathUnits="userSpaceOnUse"
       id="clipPath10">
      <path
         d="M 0,0 H 192 V 22 H 0 Z"
         id="path10" />
    </clipPath>
    <clipPath
       clipPathUnits="userSpaceOnUse"
       id="clipPath11">
      <path
         d="M 0,0 H 192 V 22 H 0 Z"
         id="path11" />
    </clipPath>
    <clipPath
       clipPathUnits="userSpaceOnUse"
       id="clipPath12">
      <path
         d="M 0,0 H 192 V 22 H 0 Z"
         transform="scale(1.3333333)"
         id="path12" />
    </clipPath>
    <clipPath
       clipPathUnits="userSpaceOnUse"
       id="clipPath24">
      <path
         d="M 0,0 H 191 V 21 H 0 Z"
         transform="scale(1.3333333)"
         id="path24" />
    </clipPath>
  </defs>
  <g
     id="g1">
    <g
       id="g24"
       clip-path="url(#clipPath24)">
      <g
         clip-path="url(#clipPath12)"
         id="g23">
        <path
           d="M 11.473,8.688 V 0 h 4.117 v 21.465 h -4.117 v -8.66 H 4.117 v 8.66 H 0 V 0 h 4.117 v 8.688 h 7.356"
           style="fill:#ffffff;fill-opacity:1;fill-rule:nonzero;stroke:none"
           transform="scale(1.3333333)"
           clip-path="url(#clipPath1)"
           id="path13" />
        <path
           d="M 33.734,0 V 4.117 H 24.32 v 4.571 h 8.172 v 4.117 H 24.32 v 4.543 h 9.414 v 4.117 H 22.23 c -0.179,0 -0.363,-0.063 -0.484,-0.215 L 20.414,19.922 C 20.266,19.801 20.203,19.617 20.203,19.434 V 2.027 c 0,-0.179 0.063,-0.363 0.211,-0.484 L 21.746,0.211 C 21.867,0.09 22.051,0 22.23,0 h 11.504"
           style="fill:#ffffff;fill-opacity:1;fill-rule:nonzero;stroke:none"
           transform="scale(1.3333333)"
           clip-path="url(#clipPath2)"
           id="path14" />
        <path
           d="m 40.102,21.465 c -0.18,0 -0.364,-0.063 -0.485,-0.215 L 38.285,19.922 C 38.133,19.801 38.074,19.617 38.074,19.434 V 0 h 4.117 v 17.348 h 8.961 v 4.117 h -11.05"
           style="fill:#ffffff;fill-opacity:1;fill-rule:nonzero;stroke:none"
           transform="scale(1.3333333)"
           clip-path="url(#clipPath3)"
           id="path15" />
        <path
           d="M 73.258,0 V 21.465 H 69.141 V 9.598 l -3.36,7.023 c -0.121,0.238 -0.363,0.395 -0.605,0.395 h -2.422 c -0.274,0 -0.516,-0.157 -0.637,-0.395 L 58.758,9.598 V 21.465 H 54.641 V 0 h 4.117 L 63.965,10.898 69.141,0 h 4.117"
           style="fill:#ffffff;fill-opacity:1;fill-rule:nonzero;stroke:none"
           transform="scale(1.3333333)"
           clip-path="url(#clipPath4)"
           id="path16" />
        <path
           d="M 89.074,8.688 V 0 h 4.117 v 21.465 h -4.117 v -8.66 h -7.355 v 8.66 H 77.602 V 0 h 4.117 v 8.688 h 7.355"
           style="fill:#ffffff;fill-opacity:1;fill-rule:nonzero;stroke:none"
           transform="scale(1.3333333)"
           clip-path="url(#clipPath5)"
           id="path17" />
        <path
           d="M 108.766,15.348 V 6.145 c 0,-0.18 -0.094,-0.364 -0.215,-0.485 L 107.25,4.328 c -0.152,-0.121 -0.332,-0.211 -0.516,-0.211 h -3.691 c -0.184,0 -0.332,0.09 -0.484,0.211 l -1.305,1.332 c -0.149,0.121 -0.211,0.305 -0.211,0.485 v 9.203 c 0,0.183 0.062,0.332 0.211,0.484 l 1.305,1.301 c 0.152,0.152 0.3,0.215 0.484,0.215 h 3.691 c 0.184,0 0.364,-0.063 0.516,-0.215 l 1.301,-1.301 c 0.121,-0.152 0.215,-0.301 0.215,-0.484 z m 0.968,-14.321 2.149,2.121 c 0.637,0.637 0.996,1.512 0.996,2.422 v 10.321 c 0,0.91 -0.359,1.789 -0.996,2.425 l -2.149,2.149 c -0.636,0.637 -1.515,1 -2.425,1 h -4.813 c -0.906,0 -1.816,-0.336 -2.449,-1 l -2.121,-2.149 c -0.637,-0.636 -1,-1.515 -1,-2.425 V 5.57 c 0,-0.91 0.363,-1.785 1,-2.422 l 2.121,-2.121 C 100.711,0.363 101.59,0 102.496,0 h 4.813 c 0.91,0 1.757,0.391 2.425,1.027"
           style="fill:#ffffff;fill-opacity:1;fill-rule:nonzero;stroke:none"
           transform="scale(1.3333333)"
           clip-path="url(#clipPath6)"
           id="path18" />
        <path
           d="m 118.555,21.465 c -0.184,0 -0.367,-0.063 -0.489,-0.215 l -1.332,-1.328 c -0.152,-0.121 -0.211,-0.305 -0.211,-0.488 V 0 h 4.118 v 17.348 h 8.961 v 4.117 h -11.047"
           style="fill:#ffffff;fill-opacity:1;fill-rule:nonzero;stroke:none"
           transform="scale(1.3333333)"
           clip-path="url(#clipPath7)"
           id="path19" />
        <path
           d="M 129.305,4.117 V 0 h 15.5 v 4.117 h -5.692 v 17.348 h -4.117 V 4.117 h -5.691"
           style="fill:#ffffff;fill-opacity:1;fill-rule:nonzero;stroke:none"
           transform="scale(1.3333333)"
           clip-path="url(#clipPath8)"
           id="path20" />
        <path
           d="m 160.742,0.211 1.332,1.332 c 0.117,0.121 0.211,0.305 0.211,0.484 v 1.059 l -9.023,14.262 h 8.902 v 4.117 h -12.293 c -0.18,0 -0.363,-0.063 -0.484,-0.215 l -1.328,-1.328 c -0.125,-0.121 -0.215,-0.305 -0.215,-0.488 v -1.239 l 8.902,-14.078 h -9.023 V 0 h 12.535 c 0.18,0 0.363,0.09 0.484,0.211"
           style="fill:#ffffff;fill-opacity:1;fill-rule:nonzero;stroke:none"
           transform="scale(1.3333333)"
           clip-path="url(#clipPath9)"
           id="path21" />
        <path
           d="m 172.434,13.16 h 5.046 l -2.539,-7.23 z m -1.457,4.117 -1.481,4.172 h -4.355 L 172.52,0.484 c 0.089,-0.3 0.335,-0.48 0.636,-0.48 h 3.602 c 0.269,0 0.543,0.18 0.633,0.453 l 7.379,20.992 h -4.352 l -1.484,-4.172 h -7.957"
           style="fill:#ffffff;fill-opacity:1;fill-rule:nonzero;stroke:none"
           transform="scale(1.3333333)"
           clip-path="url(#clipPath10)"
           id="path22" />
        <path
           d="m 187.785,0.004 h 4.113 v 21.445 h -4.113 z"
           style="fill:#ffffff;fill-opacity:1;fill-rule:nonzero;stroke:none"
           transform="scale(1.3333333)"
           clip-path="url(#clipPath11)"
           id="path23" />
      </g>
    </g>
  </g>
</svg>
